<?xml version="1.0" encoding="UTF-8"?>
<svg version="1.1" xmlns="http://www.w3.org/2000/svg" viewBox="0 0 512 512" width="100%" height="100%" preserveAspectRatio="xMidYMid meet">
<path d="M0 0 C0.70005147 -0.00235223 1.40010293 -0.00470446 2.12136808 -0.00712797 C4.4847885 -0.01382472 6.84815402 -0.01335955 9.21158314 -0.01294994 C10.91613897 -0.01624815 12.62069402 -0.01997362 14.32524806 -0.02409142 C19.02327784 -0.03412447 23.72129484 -0.03783031 28.41933382 -0.04048073 C33.48083661 -0.04437991 38.54232925 -0.05395849 43.60382557 -0.0626936 C55.8340861 -0.0824687 68.06434748 -0.09252543 80.29462001 -0.10142139 C86.05110921 -0.10580247 91.80759749 -0.11116974 97.56408596 -0.11641026 C116.69478858 -0.13342339 135.82549062 -0.14791828 154.95619965 -0.155159 C159.92225298 -0.15706896 164.88830631 -0.15898928 169.85435963 -0.16094494 C171.70583892 -0.16167055 171.70583892 -0.16167055 173.59472183 -0.16241082 C193.59658806 -0.17071377 213.59839453 -0.19605481 233.60023465 -0.22852562 C254.12591471 -0.26157575 274.65156438 -0.2796059 295.17727119 -0.28280324 C306.70567009 -0.2849702 318.23398185 -0.29374617 329.76235485 -0.31926441 C339.57907683 -0.34094343 349.39569051 -0.34903561 359.21243372 -0.33929763 C364.2220145 -0.33474485 369.23137169 -0.33669595 374.24092197 -0.35605907 C378.82731362 -0.37363366 383.41331761 -0.37273949 387.99971304 -0.35716178 C389.65857503 -0.35477703 391.31746347 -0.35915409 392.97628494 -0.37099043 C402.89331924 -0.43736711 409.99575415 -0.21245026 417.87511158 6.38422108 C423.70783632 13.32043428 426.28060135 19.86294331 428.27794361 28.66815662 C428.54695484 29.79936436 428.81596607 30.93057209 429.09312916 32.09605885 C429.97455154 35.81787929 430.83506931 39.5441982 431.69542408 43.27093983 C432.30758395 45.87426198 432.92089306 48.47728664 433.53572559 51.07997608 C434.98525851 57.22741001 436.4197451 63.37825138 437.84879386 69.53047544 C439.46502353 76.48517575 441.09819972 83.43585916 442.73276448 90.38626897 C445.28473347 101.23941627 447.8270456 112.09479275 450.35606861 122.95331287 C450.72083805 124.51943317 450.72083805 124.51943317 451.09297657 126.11719227 C451.5585211 128.11793877 452.02075018 130.11945995 452.47947788 132.1217804 C452.96799966 134.1999796 453.481607 136.27238641 454.01552677 138.33938789 C455.9164902 145.8985124 456.62862002 152.90072126 456.60753345 160.68231678 C456.616003 161.86130039 456.62447254 163.040284 456.63319874 164.25499439 C456.65637749 168.10677684 456.65759599 171.95815579 456.65636158 175.81000233 C456.66082519 177.82468281 456.66698867 179.83935368 456.67322874 181.85402936 C456.69235462 188.16922472 456.69538376 194.48428792 456.68858814 200.79950428 C456.68192936 207.29307664 456.70490949 213.78608361 456.74190187 220.27954131 C456.77265081 225.88246287 456.78395411 231.48520277 456.78006506 237.08820695 C456.77800576 240.4230177 456.7856132 243.7570347 456.80795765 247.09182644 C456.83012263 250.80604097 456.82045816 254.5188877 456.80284595 258.23309803 C456.82274082 259.87050449 456.82274082 259.87050449 456.84303761 261.54098988 C456.76848452 268.31691432 455.65141949 272.91404942 451.18761158 278.13422108 C449.08995533 279.79047108 449.08995533 279.79047108 447.12511158 280.63422108 C446.47413502 280.93328358 445.82315845 281.23234608 445.15245533 281.54047108 C443.18761158 282.13422108 443.18761158 282.13422108 439.18761158 282.13422108 C439.21379566 282.75877186 439.23997974 283.38332264 439.26695728 284.0267992 C439.37180617 286.89567708 439.43621052 289.76415067 439.50011158 292.63422108 C439.54200611 293.6164867 439.58390064 294.59875233 439.6270647 295.61078358 C439.72395967 301.4244816 439.28083166 305.72245403 435.782094 310.49261951 C431.61624159 314.78157857 427.15634169 316.3093237 421.25011158 316.52484608 C419.56216352 316.49867634 417.87441773 316.45158968 416.18761158 316.38422108 C415.31749439 316.3661742 414.4473772 316.34812733 413.55089283 316.32953358 C411.42931251 316.28290544 409.30830823 316.21118184 407.18761158 316.13422108 C407.30733326 316.74628407 407.42705494 317.35834705 407.55040455 317.98895741 C409.10973986 326.22716887 410.2325442 334.51037382 411.31261158 342.82172108 C411.49595764 344.21693594 411.67954985 345.61211848 411.86339283 347.00726795 C412.30720951 350.3826106 412.74856035 353.75825584 413.18761158 357.13422108 C414.4173772 357.39847889 415.64714283 357.6627367 416.91417408 357.93500233 C420.43412278 358.8200313 422.81480099 359.87112265 425.56261158 362.32172108 C426.53327564 363.14736561 426.53327564 363.14736561 427.52354908 363.98968983 C432.43322746 370.3169514 431.52719512 378.92265876 431.50328541 386.52240467 C431.50011911 388.62921092 431.52365617 390.73461837 431.5489397 392.84125233 C431.55121277 394.1993235 431.55191616 395.55739839 431.55089283 396.91547108 C431.55536427 398.74175037 431.55536427 398.74175037 431.55992603 400.6049242 C430.86163375 407.22427719 428.30156137 411.76865418 423.18761158 416.13422108 C419.54308414 418.52064101 416.30287045 418.38583248 412.01232815 418.38869667 C410.92163298 418.39350639 410.92163298 418.39350639 409.80890357 418.39841327 C407.35934615 418.40674996 404.91003091 418.40077623 402.46046925 418.39491749 C400.69175218 418.3979365 398.92303642 418.40182472 397.15432298 418.40651006 C392.28364653 418.41683109 387.41304335 418.41459782 382.54236078 418.41032946 C377.29345204 418.40786965 372.04456129 418.41686712 366.79565907 418.42436695 C356.50839173 418.43713689 346.22115046 418.43890478 335.93387653 418.43656669 C327.57446566 418.43478589 319.21506273 418.43652805 310.85565281 418.44079113 C309.66729713 418.44138632 308.47894146 418.44198151 307.25457501 418.44259473 C304.84066253 418.44380645 302.42675005 418.44502058 300.01283757 418.44623711 C277.35878505 418.45712154 254.7047474 418.45494591 232.05069403 418.44885226 C211.31359937 418.4436826 190.57655166 418.45493825 169.83946629 418.47395048 C148.56117273 418.49330978 127.28290141 418.50158822 106.00459898 418.49782723 C94.05264419 418.49591224 82.10072939 418.49843161 70.14878178 418.51254177 C59.97374215 418.52443227 49.7987671 418.52588673 39.62372662 418.5137516 C34.43013013 418.50784643 29.23665191 418.50680858 24.04306316 418.51875401 C19.29094671 418.52955719 14.53904807 418.52657612 9.78694205 418.51249232 C8.06556664 418.50982997 6.34417447 418.51225981 4.62281545 418.52022818 C2.28647145 418.53029476 -0.04910965 418.52194659 -2.38542271 418.50895119 C-3.68417627 418.5090062 -4.98292983 418.50906122 -6.32103956 418.5091179 C-10.76610253 418.03181241 -14.1385633 416.66094043 -17.45691967 413.63422108 C-22.93005094 406.60518293 -22.1009746 399.47087335 -22.16248608 390.96649647 C-22.17900057 389.29545591 -22.20623117 387.62448468 -22.24451733 385.95380116 C-22.6256958 369.2134369 -22.6256958 369.2134369 -18.22864819 363.48456287 C-14.74991671 360.16774443 -11.53808165 358.18442306 -6.58973217 358.04047108 C-5.67320873 358.07140858 -4.7566853 358.10234608 -3.81238842 358.13422108 C-3.76412914 357.45069569 -3.71586987 356.7671703 -3.66614819 356.06293201 C-3.0090287 347.45830552 -1.92209984 338.93035243 -0.74988842 330.38422108 C-0.56145802 328.9936339 -0.37330538 327.60300906 -0.1854353 326.21234608 C0.26953135 322.85259236 0.72726586 319.49324124 1.18761158 316.13422108 C0.41159595 316.15516834 -0.36441967 316.17611561 -1.16395092 316.19769764 C-4.7132959 316.28134867 -8.26243277 316.33303737 -11.81238842 316.38422108 C-13.03313061 316.4177367 -14.2538728 316.45125233 -15.51160717 316.48578358 C-28.49407188 316.62613455 -28.49407188 316.62613455 -33.81238842 312.13422108 C-38.58945107 307.1673169 -39.36395304 302.33747303 -39.25184155 295.61078358 C-39.18899975 294.13738514 -39.18899975 294.13738514 -39.12488842 292.63422108 C-39.10232983 291.62101795 -39.07977123 290.60781483 -39.05652905 289.56390858 C-38.99808232 287.0857674 -38.91621839 284.61080541 -38.81238842 282.13422108 C-40.4288728 281.95439686 -40.4288728 281.95439686 -42.07801342 281.77093983 C-45.35522629 281.21216818 -46.96895861 280.85474443 -49.56238842 278.94672108 C-50.11410717 278.56129139 -50.66582592 278.1758617 -51.23426342 277.77875233 C-56.16134498 272.64434308 -56.35926692 266.83741384 -56.59730053 260.12640858 C-56.64206902 259.12276862 -56.6868375 258.11912867 -56.73296261 257.08507538 C-56.87286005 253.72686489 -56.98551099 250.36872286 -57.08973217 247.00922108 C-57.12666494 245.83341795 -57.16359772 244.65761482 -57.20164967 243.4461813 C-57.45004595 235.02353835 -57.61328401 226.6007362 -57.72315693 218.17532492 C-57.7409435 216.81721728 -57.75958515 215.45912057 -57.77909184 214.10103655 C-58.65692401 152.57672645 -46.98718943 96.92564405 -30.02497673 37.90848732 C-28.84540065 33.803319 -27.6834409 29.69844912 -26.61597729 25.56253529 C-26.34812735 24.52551487 -26.34812735 24.52551487 -26.07486629 23.46754456 C-25.6191187 21.68258203 -25.17252985 19.8952875 -24.72687817 18.1077776 C-22.43151807 10.64418054 -18.37293675 5.83133729 -11.64441967 2.00922108 C-7.63296007 0.09330007 -4.40131546 0.0062868 0 0 Z M-6.81238842 21.13422108 C-7.91899346 23.72066386 -7.91899346 23.72066386 -8.56629467 26.77924061 C-8.85746166 27.97072712 -9.14862865 29.16221363 -9.44861889 30.38980579 C-9.75771803 31.72380238 -10.06646134 33.05788145 -10.37488842 34.39203358 C-10.71366147 35.80640226 -11.05370692 37.22046667 -11.39490795 38.63425159 C-12.34671914 42.59841299 -13.27747875 46.56727137 -14.20441723 50.53731251 C-15.04712716 54.13689201 -15.90053154 57.73391072 -16.75330639 61.33111668 C-19.56411058 73.19233848 -22.33421499 85.06289411 -25.09650707 96.93549061 C-26.06619879 101.09898919 -27.03947807 105.26164607 -28.0127058 109.42431927 C-28.95279951 113.44720463 -29.89077442 117.4705816 -30.82807446 121.49411869 C-31.27400556 123.40730116 -31.72057387 125.32033522 -32.16779613 127.23321629 C-32.78455003 129.87273721 -33.39847589 132.51289964 -34.01160717 135.15326405 C-34.19540432 135.93736652 -34.37920147 136.721469 -34.56856823 137.52933216 C-35.48593064 141.29225499 -35.48593064 141.29225499 -35.81238842 145.13422108 C119.94761158 145.13422108 275.70761158 145.13422108 436.18761158 145.13422108 C432.99410503 129.87615194 432.99410503 129.87615194 429.5621233 114.67743397 C429.33066608 113.68622044 429.09920887 112.6950069 428.8607378 111.6737566 C428.11522795 108.4842524 427.36652442 105.29551063 426.61729908 102.10687733 C426.08967568 99.85676088 425.56209885 97.60663352 425.03456593 95.35649586 C423.93857996 90.68445223 422.84074911 86.01284648 421.7418108 81.34149647 C420.33362321 75.35408309 418.93216253 69.36511611 417.53225994 63.37576103 C416.44959831 58.7485196 415.36242966 54.12234586 414.27398014 49.49646282 C413.75483745 47.28682488 413.23733539 45.07680081 412.72151279 42.86638546 C412.00384633 39.79315101 411.27988557 36.72146568 410.5543108 33.65009022 C410.23789631 32.28577366 410.23789631 32.28577366 409.91508961 30.89389515 C409.71618122 30.05761082 409.51727283 29.22132648 409.31233692 28.3597002 C409.14239153 27.63588185 408.97244614 26.9120635 408.79735088 26.16631126 C407.60669045 22.19817379 406.71212901 20.48389937 403.18761158 18.13422108 C400.09431842 17.8302547 400.09431842 17.8302547 396.48898888 17.87974548 C395.80124601 17.87653901 395.11350315 17.87333253 394.40491959 17.87002888 C392.0833412 17.86167872 389.76201742 17.86767053 387.44043446 17.87352467 C385.76602537 17.87050626 384.09161767 17.86661836 382.41721243 17.8619321 C377.80265038 17.85160321 373.1881656 17.8538463 368.57359707 17.85811269 C363.60214808 17.86057108 358.63071812 17.85157685 353.65927601 17.8440752 C343.91463884 17.83130147 334.17002919 17.82953783 324.42538507 17.83187547 C316.50786664 17.83365577 308.59035659 17.83191518 300.67283916 17.82765102 C298.98498621 17.82675824 298.98498621 17.82675824 297.26303522 17.82584742 C294.97740074 17.82463572 292.69176627 17.82342158 290.4061318 17.82220504 C268.95343751 17.81131925 247.50075893 17.81349694 226.04806375 17.81958989 C206.40562957 17.82476025 186.76324496 17.81350232 167.12082059 17.79449167 C146.97032047 17.77513822 126.81984383 17.76685287 106.66933435 17.77061492 C95.34899988 17.77253073 84.02870761 17.7700026 72.7083807 17.75590038 C63.07161212 17.74401734 53.43491172 17.742547 43.79814226 17.75469055 C38.87820916 17.76060088 33.95840095 17.76161952 29.03847599 17.74968815 C24.53869424 17.73890218 20.03914278 17.74184505 15.53937214 17.75594983 C13.90750386 17.75861699 12.27561796 17.75616758 10.64376689 17.74821397 C8.43292122 17.73818241 6.22288765 17.74646492 4.01207542 17.75949097 C2.78188889 17.75943595 1.55170236 17.75938094 0.28423744 17.75932425 C-3.07360125 18.16584513 -4.44218089 18.76672609 -6.81238842 21.13422108 Z M-37.81238842 163.13422108 C-37.81238842 196.46422108 -37.81238842 229.79422108 -37.81238842 264.13422108 C-22.63238842 264.13422108 -7.45238842 264.13422108 8.18761158 264.13422108 C9.99769179 262.32414087 9.72596327 259.50309185 10.01964283 257.05218983 C10.17884205 255.81017811 10.33804127 254.56816639 10.5020647 253.28851795 C10.83246802 250.65695275 11.15288507 248.02411331 11.4630022 245.39008045 C11.62606861 244.14420155 11.78913502 242.89832264 11.95714283 241.61468983 C12.09740894 240.46895496 12.23767506 239.3232201 12.38219166 238.142766 C13.34104939 234.5610734 14.29069382 233.41151205 17.18761158 231.13422108 C20.07790184 230.63397509 20.07790184 230.63397509 23.50952625 230.63364983 C25.47195727 230.61892839 25.47195727 230.61892839 27.47403336 230.60390955 C28.92942443 230.6132491 30.38481313 230.62296468 31.84019947 230.63301563 C33.38348148 230.62912432 34.9267599 230.62348525 36.47002983 230.61624473 C40.71758551 230.60144749 44.96477207 230.61169646 49.21231604 230.62598145 C53.79043428 230.63706321 58.36849955 230.62515793 62.94661427 230.61613941 C71.91778343 230.60218582 80.88881211 230.60977874 89.85997462 230.62481499 C100.30090213 230.64165048 110.74179439 230.63846795 121.18273127 230.63472091 C139.80840992 230.62883845 158.43402103 230.64302905 177.05968189 230.66766834 C195.14499411 230.69159024 213.23021607 230.69867309 231.31554127 230.68817616 C250.99557951 230.67677414 270.67557598 230.67482802 290.35561371 230.68927425 C292.45300452 230.69080014 294.55039533 230.69232049 296.64778614 230.69383526 C297.67982058 230.69459307 298.71185502 230.69535089 299.77516323 230.69613167 C307.05800754 230.70088004 314.34083323 230.69901914 321.62367725 230.69476986 C330.49554011 230.68984984 339.36731752 230.69579784 348.23916078 230.71566416 C352.76822113 230.72555503 357.29715123 230.73062198 361.82621861 230.72277164 C365.96884777 230.71573789 370.11121357 230.72246507 374.2538079 230.74037527 C375.75576339 230.74443481 377.25774271 230.74339482 378.75968945 230.73685641 C380.79501707 230.72875155 382.83039551 230.74077433 384.86569691 230.75390434 C385.99813296 230.75493347 387.13056902 230.7559626 388.29732132 230.75702292 C391.50882691 231.17614138 392.87533856 231.90985703 395.18761158 234.13422108 C395.91026783 235.91156483 395.91026783 235.91156483 396.25011158 238.07172108 C396.39319752 238.93410389 396.53628345 239.7964867 396.68370533 240.68500233 C396.84999439 241.82324451 397.01628345 242.9614867 397.18761158 244.13422108 C397.44857777 245.83615956 397.71036926 247.5379716 397.97276783 249.23968983 C398.73516707 254.2013588 399.45908749 259.16701134 400.18761158 264.13422108 C412.72761158 264.13422108 425.26761158 264.13422108 438.18761158 264.13422108 C438.18761158 230.80422108 438.18761158 197.47422108 438.18761158 163.13422108 C281.10761158 163.13422108 124.02761158 163.13422108 -37.81238842 163.13422108 Z M29.18761158 248.13422108 C27.87223435 255.16046942 26.70478266 262.16989187 25.76720142 269.25555897 C25.64011295 270.20004902 25.51302448 271.14453907 25.38208485 272.11765003 C24.96839098 275.19706133 24.55838179 278.27694998 24.14854908 281.35687733 C23.86013234 283.5111536 23.57152452 285.66540431 23.28273487 287.81963062 C22.6810649 292.3118955 22.08112251 296.80438645 21.48253345 301.29706287 C20.71404318 307.06447348 19.94208114 312.83141275 19.1689558 318.59820366 C18.57427182 323.03570544 17.98095284 327.47338883 17.38810062 331.91113567 C17.10373432 334.03912529 16.81904422 336.16707166 16.53402805 338.29497433 C16.13777081 341.25561924 15.74324294 344.2164893 15.34923267 347.17743397 C15.23081516 348.05998356 15.11239765 348.94253315 14.99039173 349.85182667 C14.40564125 353.97867908 14.40564125 353.97867908 14.18761158 358.13422108 C139.58761158 358.13422108 264.98761158 358.13422108 394.18761158 358.13422108 C393.59968598 349.90326262 393.01378135 341.87108953 391.88072681 333.73236561 C391.75378437 332.79397846 391.62684193 331.85559132 391.49605274 330.8887682 C391.08361416 327.84760448 390.66498696 324.80732969 390.24620533 321.76703358 C389.95578458 319.63475183 389.66575727 317.50241646 389.3761034 315.3700304 C388.61885997 309.80313565 387.85633244 304.23697756 387.09264088 298.67096424 C386.31181311 292.97296024 385.53606961 287.27426428 384.7598772 281.57562733 C383.240718 270.42781371 381.71549635 259.28084215 380.18761158 248.13422108 C373.91761158 248.13422108 367.64761158 248.13422108 361.18761158 248.13422108 C361.23401783 249.59472889 361.28042408 251.0552367 361.32823658 252.56000233 C361.74672924 271.06119695 358.15525134 284.14485083 345.30089283 298.11078358 C315.68292669 326.46957555 270.83315119 337.08596826 231.18761158 340.13422108 C230.09126392 340.2188158 230.09126392 340.2188158 228.97276783 340.30511951 C223.71436306 340.69015869 218.45693748 340.95577777 213.18761158 341.13422108 C212.49828541 341.15758533 211.80895924 341.18094959 211.09874439 341.20502186 C165.7447587 342.48456768 108.36881714 335.37434198 72.18761158 305.13422108 C71.33038502 304.42652576 70.47315845 303.71883045 69.58995533 302.98968983 C58.73722814 293.64292176 48.98959121 281.85896887 47.18761158 267.13422108 C46.88177599 260.59899753 47.10949503 254.60292039 48.18761158 248.13422108 C41.91761158 248.13422108 35.64761158 248.13422108 29.18761158 248.13422108 Z M139.18761158 248.13422108 C159.95186584 264.74562449 191.34302396 266.18092012 216.75011158 263.63031483 C232.9423452 261.71436751 247.13919498 257.48148231 261.18761158 249.13422108 C261.18761158 248.80422108 261.18761158 248.47422108 261.18761158 248.13422108 C220.92761158 248.13422108 180.66761158 248.13422108 139.18761158 248.13422108 Z M67.18761158 248.13422108 C66.6892759 249.38308736 66.19858797 250.63500671 65.71104908 251.88812733 C65.43696217 252.58494617 65.16287525 253.28176502 64.88048267 253.99969959 C62.72378378 260.64382167 64.41323545 266.97362921 67.18761158 273.13422108 C79.81798158 296.81095428 106.94016967 306.90593553 131.12511158 314.38422108 C189.39599993 331.60959715 260.29387298 328.53608526 314.26671314 299.611516 C326.42559896 292.81338482 337.87750208 283.202362 343.34776783 270.10687733 C345.49579192 262.50387113 344.74263145 255.48381459 342.18761158 248.13422108 C334.72954297 247.92525953 327.2721096 247.76556749 319.81170177 247.66791153 C316.34692012 247.62102714 312.88414708 247.55750456 309.42052174 247.455266 C305.43427975 247.33834377 301.44883729 247.29502345 297.46104908 247.25531483 C296.22333759 247.20886326 294.98562611 247.16241169 293.71040821 247.1145525 C287.3316569 246.95884932 287.3316569 246.95884932 282.10564137 250.11395741 C280.58407344 252.39461682 279.37714713 254.66882139 278.18761158 257.13422108 C263.49620452 274.10724817 236.37460666 279.13307994 215.08580494 280.94232655 C185.92245538 282.87328373 149.54173026 280.98522195 126.18761158 261.13422108 C119.74843631 254.74382744 119.74843631 254.74382744 118.28380299 250.54022694 C116.46703276 247.96242875 116.46703276 247.96242875 114.02310658 247.69507313 C111.06221715 247.55281609 108.13940867 247.57354043 105.17589283 247.64593983 C103.55085079 247.65655193 103.55085079 247.65655193 101.89297962 247.66737843 C98.42799196 247.69539854 94.96461195 247.75815446 91.50011158 247.82172108 C89.15312968 247.84679394 86.8061225 247.86960886 84.45909595 247.89008045 C78.70138468 247.94525009 72.94461296 248.02895287 67.18761158 248.13422108 Z M-20.81238842 282.13422108 C-20.81238842 287.41422108 -20.81238842 292.69422108 -20.81238842 298.13422108 C-12.56238842 298.13422108 -4.31238842 298.13422108 4.18761158 298.13422108 C4.84761158 292.85422108 5.50761158 287.57422108 6.18761158 282.13422108 C-2.72238842 282.13422108 -11.63238842 282.13422108 -20.81238842 282.13422108 Z M403.18761158 282.13422108 C403.33198658 284.58859608 403.47636158 287.04297108 403.62511158 289.57172108 C403.66821461 290.34572254 403.71131763 291.11972401 403.75572681 291.91718006 C403.68556737 295.31583189 403.68556737 295.31583189 405.18761158 298.13422108 C407.88630208 298.20747543 410.55263714 298.22644459 413.25011158 298.19672108 C417.17917408 298.16578358 417.17917408 298.16578358 421.18761158 298.13422108 C421.18761158 292.85422108 421.18761158 287.57422108 421.18761158 282.13422108 C415.24761158 282.13422108 409.30761158 282.13422108 403.18761158 282.13422108 Z M-3.81238842 376.13422108 C-3.81238842 384.05422108 -3.81238842 391.97422108 -3.81238842 400.13422108 C133.79761158 400.13422108 271.40761158 400.13422108 413.18761158 400.13422108 C413.18761158 392.21422108 413.18761158 384.29422108 413.18761158 376.13422108 C275.57761158 376.13422108 137.96761158 376.13422108 -3.81238842 376.13422108 Z " fill="#000000" transform="translate(55.81238842010498,46.86577892303467)"/>
<path d="M0 0 C0.69250839 -0.00495952 1.38501678 -0.00991903 2.09851027 -0.01502883 C4.43640934 -0.02805943 6.77374422 -0.01957704 9.1116581 -0.01129913 C10.7977313 -0.01618453 12.48380114 -0.02237269 14.16986525 -0.02975702 C18.81672776 -0.04622446 23.46342137 -0.04382485 28.11030293 -0.03838205 C33.11654897 -0.03572019 38.12274914 -0.05022776 43.12897682 -0.06247711 C52.94213555 -0.08356933 62.75523525 -0.08806979 72.56841396 -0.08628923 C80.54218276 -0.08498347 88.51593309 -0.08877621 96.48969841 -0.09621429 C98.78336926 -0.09831341 101.07704011 -0.10041101 103.37071097 -0.10250711 C104.51220943 -0.10355064 105.6537079 -0.10459417 106.82979722 -0.10566932 C128.436563 -0.1245871 150.04329486 -0.12351682 171.6500655 -0.11669999 C191.43088789 -0.11112378 211.21158079 -0.13195061 230.99237292 -0.16506046 C251.28639592 -0.19876663 271.58035684 -0.21396961 291.87440836 -0.20934343 C303.2747306 -0.20709558 314.67493317 -0.21238793 326.07523155 -0.23723602 C335.78081223 -0.25820952 345.48620763 -0.26188054 355.19179581 -0.24293643 C360.14636213 -0.23375403 365.10058263 -0.23271187 370.05512238 -0.25329208 C374.58778544 -0.27191209 379.11981728 -0.26760018 383.65245564 -0.24474627 C385.2951098 -0.24053767 386.93781151 -0.24483585 388.58041553 -0.25834221 C390.80869853 -0.27542131 393.03475718 -0.26187417 395.26295471 -0.24050903 C396.50187481 -0.24078142 397.74079491 -0.2410538 399.01725805 -0.24133444 C403.18215734 0.56135071 404.67302888 2.08221228 407.2573185 5.38311005 C407.94309458 9.65016123 407.75754964 11.58963996 405.4448185 15.25811005 C401.77043303 18.82751307 398.48958917 18.50954501 393.57710648 18.51453781 C392.89135158 18.51659045 392.20559669 18.51864308 391.49906135 18.52075791 C389.18430122 18.5264454 386.86960027 18.52496852 384.55483437 18.52355194 C382.88526382 18.52613457 381.21569389 18.52914744 379.54612482 18.53255534 C374.94491545 18.54064049 370.34372166 18.54241575 365.74250603 18.54315281 C360.78535733 18.54500071 355.82821678 18.55254665 350.87107277 18.55928802 C340.02622035 18.57288208 329.18137161 18.57889758 318.33651209 18.58329868 C311.56889613 18.58605899 304.8012816 18.59029592 298.03366661 18.59480286 C279.30699757 18.60699634 260.58032969 18.61729588 241.85365677 18.62067795 C240.65463738 18.62089751 239.455618 18.62111708 238.2202647 18.6213433 C237.01833236 18.62156158 235.81640002 18.62177986 234.57804549 18.62200475 C232.14236045 18.62244822 229.70667541 18.62289478 227.27099037 18.62334442 C226.06279945 18.62356585 224.85460852 18.62378728 223.60980575 18.62401542 C204.02301523 18.62796532 184.43626187 18.64542482 164.84948571 18.66870394 C144.75435459 18.6923951 124.65924213 18.70487876 104.56409681 18.70604587 C93.27558454 18.70696383 81.98712071 18.71274657 70.69862175 18.73086548 C61.0882368 18.74623624 51.47791525 18.75140482 41.86752035 18.74312738 C36.96163677 18.73921028 32.05588097 18.74020198 27.15001297 18.75418472 C22.66190362 18.76686015 18.17401891 18.76578246 13.68591015 18.75359401 C12.05940537 18.75162594 10.43288502 18.75476626 8.80640216 18.76343837 C6.60039707 18.77445882 4.39519489 18.76709483 2.1892128 18.75504684 C0.96244375 18.75564393 -0.2643253 18.75624102 -1.52826917 18.7568562 C-5.07486478 18.34448643 -6.94311608 17.57396688 -9.7426815 15.38311005 C-11.29259292 11.74418759 -12.02298006 9.50430426 -11.0551815 5.63311005 C-8.04944127 0.4804125 -6.01043123 0.00762445 0 0 Z " fill="#000000" transform="translate(70.7426815032959,242.61688995361328)"/>
<path d="M0 0 C3.34238038 2.14255152 3.89167954 3.60282498 4.9375 7.4375 C5.00779003 11.44403151 4.53249114 12.94354518 2 16 C-0.65499724 18.08606926 -2.06750504 17.99879455 -5.5 17.9375 C-9 17 -9 17 -11.4375 14.875 C-13.43514338 11.19933618 -13.66350721 9.12848931 -13 5 C-9.28222104 -0.46048784 -6.17499257 -0.8821418 0 0 Z " fill="#000000" transform="translate(47,243)"/>
</svg>
